<?xml version="1.0" encoding="UTF-8"?>
<svg id="Layer_1" data-name="Layer 1" xmlns="http://www.w3.org/2000/svg" viewBox="0 0 32 28.84">
  <defs>
    <style>
      .cls-1 {
        fill: #66825a;
        stroke-width: 0px;
      }
    </style>
  </defs>
  <path class="cls-1" d="M1.25,8.78h7.52v18.81c0,.69-.56,1.25-1.25,1.25H1.25c-.69,0-1.25-.56-1.25-1.25V10.03c0-.69.56-1.25,1.25-1.25Z"/>
  <path class="cls-1" d="M32,15.21v12.38c0,.69-.56,1.25-1.25,1.25h-6.27c-.69,0-1.25-.56-1.25-1.25v-13.79c0-2.77-2.25-5.02-5.02-5.02h-9.43V1.25c0-.69.56-1.25,1.25-1.25h7.15c.68,0,1.33.28,1.8.76l12.31,12.7c.45.47.71,1.09.71,1.75Z"/>
</svg>